<svg width="19" height="19" viewBox="0 0 19 19" fill="none" xmlns="http://www.w3.org/2000/svg">
<path d="M9.893 0.49066C9.90282 0.278438 9.7063 0.0976562 9.49994 0.0976562C9.02631 0.0976562 8.55662 0.138922 8.08888 0.209662C7.177 0.349178 6.29067 0.640001 5.46526 1.05069C4.66343 1.45155 3.92056 1.98014 3.27202 2.59912C2.62545 3.21614 2.06731 3.9373 1.63299 4.71937C1.19081 5.5152 0.864573 6.38374 0.683768 7.27782C0.497068 8.20728 0.447937 9.1662 0.557991 10.1094C0.668046 11.0566 0.9196 11.9683 1.31265 12.8369C1.68409 13.6563 2.18523 14.4148 2.78267 15.0868C3.37618 15.7569 4.07778 16.3365 4.84227 16.8003C5.61855 17.2699 6.47344 17.6256 7.35584 17.8398C8.27362 18.0638 9.23267 18.1444 10.174 18.0717C11.0977 17.999 12.0116 17.7946 12.8684 17.4389C13.7312 17.0852 14.5251 16.6117 15.2444 16.0202C15.9362 15.4523 16.5356 14.7724 17.0289 14.0257C17.53 13.2672 17.9132 12.4222 18.1609 11.5478C18.4183 10.6439 18.5303 9.69086 18.493 8.75159C18.4557 7.82017 18.2807 6.89268 17.9584 6.01825C17.646 5.16936 17.2136 4.3696 16.6633 3.65237C16.0993 2.91942 15.439 2.27882 14.6843 1.74237C13.9493 1.21772 13.1278 0.810957 12.267 0.531925C11.3768 0.243067 10.4354 0.0996213 9.49994 0.0976562C9.27983 0.0976562 9.11672 0.278438 9.10689 0.49066C9.09706 0.702881 9.29359 0.883663 9.49994 0.883663C9.72005 0.883663 9.94016 0.891523 10.1622 0.905278C10.2703 0.915103 10.3784 0.924928 10.4865 0.936718C10.514 0.940648 10.5396 0.942613 10.5671 0.946543C10.5907 0.950473 10.6811 0.950473 10.569 0.946543C10.6201 0.948508 10.6752 0.962263 10.7282 0.970123C11.1665 1.03693 11.5988 1.13911 12.0214 1.2747C12.2199 1.33955 12.4184 1.41029 12.6129 1.48889C12.6424 1.50068 12.6817 1.5105 12.7092 1.52819C12.6286 1.47513 12.6817 1.51836 12.7112 1.53015C12.7603 1.5498 12.8075 1.57142 12.8546 1.59303C12.949 1.63626 13.0433 1.67949 13.1357 1.72665C13.5228 1.91923 13.8943 2.14127 14.2461 2.38886C14.3384 2.45371 14.4288 2.52052 14.5173 2.58733C14.59 2.64235 14.4485 2.53231 14.5192 2.5893C14.5389 2.60502 14.5605 2.62074 14.5802 2.63646C14.6195 2.66986 14.6607 2.7013 14.7 2.73471C14.8592 2.86636 15.0125 3.00391 15.1619 3.1454C15.3171 3.29277 15.4665 3.44604 15.61 3.60521C15.6846 3.68774 15.7593 3.77027 15.8301 3.85673C15.8929 3.9314 15.9755 4.01 16.0246 4.09646C15.9716 4.00214 16.0246 4.09843 16.0423 4.12004C16.058 4.14166 16.0738 4.16131 16.0895 4.18292C16.119 4.22419 16.1504 4.26742 16.1799 4.30869C16.2388 4.39318 16.2978 4.47768 16.3548 4.56414C16.4747 4.74295 16.5867 4.92767 16.6908 5.11631C16.7911 5.29709 16.8854 5.4818 16.9738 5.67044C16.9994 5.72546 17.0249 5.78245 17.0485 5.83747C17.0583 5.86301 17.0701 5.88659 17.08 5.91017C17.1153 5.99467 17.0446 5.82764 17.08 5.91214C17.1193 6.01039 17.1566 6.10668 17.194 6.20493C17.3472 6.61758 17.4691 7.04202 17.5575 7.47433C17.5811 7.5883 17.6027 7.70227 17.6204 7.81624C17.6283 7.86929 17.6361 7.92235 17.644 7.97541C17.6479 8.01078 17.6774 8.06776 17.644 7.97737C17.6519 7.99899 17.6519 8.03436 17.6538 8.05794C17.6794 8.27409 17.6971 8.4922 17.7069 8.71032C17.7265 9.16817 17.7108 9.62798 17.6597 10.0819C17.6538 10.1192 17.6499 10.1546 17.646 10.19C17.6342 10.2843 17.6597 10.0976 17.646 10.1919C17.6381 10.245 17.6302 10.2981 17.6224 10.3511C17.6047 10.4572 17.587 10.5614 17.5654 10.6675C17.5222 10.8856 17.4711 11.0998 17.4121 11.314C17.3551 11.5164 17.2903 11.7168 17.2195 11.9153C17.1802 12.0233 17.1409 12.1294 17.0977 12.2336C17.0898 12.2552 17.0819 12.2866 17.0682 12.3063C17.1212 12.2257 17.078 12.2788 17.0662 12.3083C17.0466 12.3574 17.0249 12.4046 17.0033 12.4517C16.8245 12.8447 16.6162 13.2259 16.3803 13.5875C16.2663 13.7643 16.1425 13.9353 16.0168 14.1043C15.9558 14.1849 16.0561 14.0532 16.0069 14.1161C15.9912 14.1357 15.9755 14.1573 15.9598 14.177C15.9264 14.2163 15.8949 14.2576 15.8615 14.2969C15.7966 14.3755 15.7298 14.4541 15.661 14.5307C15.3761 14.851 15.0675 15.1497 14.7393 15.4248C14.6941 15.4641 14.647 15.5014 14.5998 15.5388C14.5802 15.5545 14.5585 15.5702 14.5389 15.5859C14.5153 15.6036 14.4701 15.6606 14.5369 15.5879C14.4701 15.6606 14.3659 15.7156 14.2873 15.7726C14.1203 15.8925 13.9473 16.0064 13.7705 16.1145C13.5857 16.2265 13.3971 16.3326 13.2045 16.4309C13.1042 16.482 13.002 16.5311 12.8999 16.5782C12.8507 16.5999 12.8036 16.6215 12.7564 16.6431C12.7308 16.6529 12.7073 16.6647 12.6837 16.6745C12.5992 16.7099 12.7662 16.6392 12.6817 16.6745C12.2749 16.8416 11.8583 16.9791 11.4318 17.0833C11.2235 17.1343 11.0132 17.1756 10.8029 17.211C10.74 17.2228 10.6791 17.2306 10.6162 17.2405C10.5808 17.2444 10.5238 17.2739 10.6142 17.2405C10.5926 17.2483 10.5573 17.2483 10.5337 17.2503C10.4256 17.264 10.3175 17.2739 10.2094 17.2837C9.75346 17.321 9.29359 17.323 8.83568 17.2876C8.71777 17.2798 8.60182 17.268 8.4839 17.2542C8.45639 17.2503 8.43084 17.2483 8.40333 17.2444C8.30899 17.2326 8.49569 17.2581 8.40136 17.2444C8.3483 17.2365 8.29524 17.2287 8.24217 17.2208C8.03189 17.1874 7.82161 17.1461 7.61329 17.097C7.18486 16.9948 6.76626 16.8612 6.35945 16.6961C6.3339 16.6863 6.22188 16.6549 6.33194 16.6863C6.30639 16.6785 6.28281 16.6647 6.25922 16.6549C6.21009 16.6352 6.16292 16.6136 6.11576 16.592C6.02143 16.5488 5.92709 16.5036 5.83473 16.4564C5.64213 16.3601 5.4515 16.256 5.26676 16.144C5.08989 16.0379 4.91695 15.9239 4.74793 15.806C4.65557 15.7411 4.56517 15.6743 4.47673 15.6075C4.40401 15.5525 4.54551 15.6625 4.47476 15.6056C4.45511 15.5898 4.43349 15.5741 4.41384 15.5584C4.37453 15.525 4.33326 15.4936 4.29396 15.4602C3.96379 15.187 3.65328 14.8883 3.36635 14.57C3.29167 14.4875 3.21896 14.403 3.14821 14.3165C3.1148 14.2772 3.08139 14.2359 3.04995 14.1966C3.03422 14.177 3.0185 14.1554 3.00278 14.1357C2.98509 14.1122 2.9281 14.067 3.00081 14.1338C2.9281 14.067 2.87307 13.9628 2.81608 13.8842C2.75712 13.7997 2.69816 13.7152 2.64117 13.6288C2.40337 13.2672 2.19309 12.8899 2.01229 12.4969C1.98674 12.4419 1.96119 12.3849 1.93761 12.3299C1.92778 12.3063 1.91402 12.2808 1.90616 12.2572C1.93564 12.3594 1.91599 12.2788 1.90616 12.2552C1.86686 12.1589 1.82755 12.0607 1.79218 11.9624C1.71946 11.7659 1.65264 11.5655 1.59565 11.3631C1.53473 11.1509 1.48167 10.9347 1.43843 10.7186C1.41485 10.6046 1.39323 10.4906 1.37554 10.3767C1.36768 10.3236 1.35982 10.2705 1.35196 10.2175C1.34803 10.1821 1.31855 10.1251 1.35196 10.2155C1.3441 10.1939 1.3441 10.1585 1.34213 10.135C1.28907 9.68104 1.26942 9.22319 1.2871 8.76534C1.29497 8.54722 1.31069 8.32911 1.33624 8.11296C1.34213 8.07562 1.34606 8.04025 1.34999 8.00488C1.36178 7.91056 1.33624 8.09724 1.34999 8.00292C1.35785 7.94986 1.36572 7.8968 1.37358 7.84375C1.39126 7.73764 1.40895 7.63349 1.43057 7.52738C1.51704 7.09508 1.63496 6.66867 1.78628 6.25405C1.82559 6.14794 1.86686 6.04183 1.91009 5.93768C1.91992 5.9141 1.93957 5.83354 1.91009 5.93572C1.91795 5.91017 1.93171 5.88659 1.94154 5.86301C1.96119 5.81389 1.98281 5.76673 2.00443 5.71957C2.0909 5.53093 2.18326 5.34621 2.28349 5.16347C2.49181 4.78618 2.72764 4.42659 2.98706 4.08271C3.01261 4.0493 3.00868 4.0552 2.9733 4.10039C2.98313 4.08664 2.99492 4.07288 3.00475 4.05913C3.02047 4.03751 3.03619 4.01786 3.05191 3.99821C3.08532 3.95695 3.11677 3.91765 3.15017 3.87835C3.21699 3.79975 3.28381 3.72115 3.3526 3.64451C3.49606 3.48338 3.64542 3.33011 3.79871 3.18077C3.94807 3.03732 4.10136 2.89977 4.25858 2.76811C4.30379 2.72881 4.35095 2.69148 4.39812 2.65414C4.41777 2.63842 4.43939 2.6227 4.45904 2.60698C4.48262 2.5893 4.52783 2.53231 4.46101 2.60502C4.52783 2.53231 4.63198 2.47729 4.71059 2.42031C5.06238 2.17075 5.43185 1.94674 5.81704 1.7522C5.91727 1.70111 6.01946 1.65198 6.12165 1.60482C6.16882 1.58321 6.21795 1.56356 6.26512 1.54194C6.2887 1.53212 6.31425 1.51836 6.33783 1.5105C6.23564 1.53998 6.31622 1.52033 6.3398 1.5105C6.53239 1.42994 6.73089 1.35723 6.92938 1.29239C7.34994 1.15483 7.78034 1.05069 8.21859 0.979948C8.28148 0.970123 8.3424 0.962263 8.40529 0.952438C8.49962 0.938683 8.31292 0.964228 8.40726 0.952438C8.43477 0.948508 8.46032 0.946543 8.48783 0.942613C8.59592 0.930823 8.70401 0.919033 8.8121 0.911173C9.04204 0.893488 9.27001 0.883663 9.49994 0.883663C9.72005 0.883663 9.88317 0.704846 9.893 0.49066Z" fill="#0B1730" fill-opacity="0.6"/>
<path d="M11.0097 5.52509C11.165 5.36985 11.1532 5.12619 11.0058 4.96899C10.8623 4.81179 10.5951 4.82358 10.4496 4.96899C10.4418 4.97685 10.432 4.98668 10.4241 4.99454C9.91705 5.49169 9.41984 5.99866 8.91673 6.5017C8.3134 7.10496 7.71006 7.70822 7.10672 8.31148C7.0517 8.3665 6.9947 8.42152 6.93968 8.47851C6.67044 8.75361 6.60362 9.14858 6.77066 9.49639C6.86893 9.70075 7.08707 9.87367 7.24429 10.0309C7.88497 10.6715 8.52761 11.314 9.16829 11.9546C9.59475 12.381 10.0232 12.8094 10.4496 13.2358C10.6049 13.3911 10.8486 13.3793 11.0058 13.2358C11.163 13.0924 11.1512 12.8251 11.0058 12.6797C10.9979 12.6719 10.9881 12.662 10.9803 12.6542C10.4968 12.159 9.99959 11.6736 9.50828 11.1824C8.90298 10.5771 8.29964 9.97389 7.69434 9.36866C7.63341 9.30775 7.57053 9.24683 7.5096 9.18395C7.50567 9.18002 7.46637 9.13876 7.46637 9.13876C7.47619 9.15055 7.48405 9.16234 7.49388 9.17413C7.48209 9.15841 7.47226 9.14268 7.4644 9.12696C7.43296 9.07784 7.48602 9.12303 7.47226 9.14465C7.4703 9.14858 7.45851 9.09159 7.45851 9.09159C7.46047 9.09159 7.4644 9.18788 7.4644 9.10339C7.4644 9.03854 7.48799 9.08177 7.45851 9.11518C7.45654 9.11714 7.4703 9.06212 7.47226 9.06212C7.46244 9.06212 7.43296 9.13679 7.47226 9.06801C7.51157 8.99924 7.48012 9.07391 7.46833 9.06801C7.47423 9.07194 7.57642 8.95797 7.58035 8.95404C7.66879 8.86562 7.75526 8.77916 7.8437 8.69073C8.48241 8.0521 9.12308 7.41151 9.7618 6.77288C10.1784 6.35629 10.5931 5.94167 11.0097 5.52509Z" fill="#0B1730" fill-opacity="0.6"/>
</svg>
