<!DOCTYPE svg PUBLIC "-//W3C//DTD SVG 1.1//EN" "http://www.w3.org/Graphics/SVG/1.1/DTD/svg11.dtd">
<!-- Uploaded to: SVG Repo, www.svgrepo.com, Transformed by: SVG Repo Mixer Tools -->
<svg fill="#000000" width="800px" height="800px" viewBox="0 0 24 24" id="log-in-double-arrow-2" data-name="Flat Color" xmlns="http://www.w3.org/2000/svg" class="icon flat-color" transform="rotate(-45)">
<g id="SVGRepo_bgCarrier" stroke-width="0"/>
<g id="SVGRepo_tracerCarrier" stroke-linecap="round" stroke-linejoin="round"/>
<g id="SVGRepo_iconCarrier">
<path id="secondary" d="M17.71,12.71l-3,3a1,1,0,0,1-1.42,0,1,1,0,0,1,0-1.42L15.59,12l-2.3-2.29a1,1,0,0,1,1.42-1.42l3,3A1,1,0,0,1,17.71,12.71Zm-5-1.42-3-3A1,1,0,0,0,8.29,9.71L9.59,11H3a1,1,0,0,0,0,2H9.59l-1.3,1.29a1,1,0,0,0,0,1.42,1,1,0,0,0,1.42,0l3-3A1,1,0,0,0,12.71,11.29Z" style="fill: #273270;"/>
<path id="primary" d="M20,21H17a1,1,0,0,1,0-2h3V5H17a1,1,0,0,1,0-2h3a2,2,0,0,1,2,2V19A2,2,0,0,1,20,21Z" style="fill: #00000000;"/>
</g>
</svg>