<svg xmlns="http://www.w3.org/2000/svg" id="BRANDMARKS" viewBox="0 0 251.23 108.9"><defs><style>.cls-1{fill:#fdb913;}</style></defs><path class="cls-1" d="M0,0H41.09C56.18,0,66.74,9.87,66.74,26.58,66.74,38.07,61.64,47,52,50.49c5.57,3.25,7.78,10.56,10.1,18.11,1.74,5.8,3.48,11.61,6.85,15.55l-16.25.12c-2.79-3.13-4.41-8.71-6-14.28-2.55-8.12-5-16.36-10.21-18H17V84.15H0ZM38.54,39.12a12.55,12.55,0,0,0,12.77-13c0-8.48-6.16-13.24-13.59-13.24H17V39.12Z"></path><path class="cls-1" d="M129.68,22.14h15.2V33.89c4-7.43,11.14-15.46,20.78-15.46,8.82,0,19.61,7.22,19.61,24.63V84.15h-15.2V44.54c-.12-10.91-6.5-14.38-11.38-14.38-8.59,0-13.81,8.34-13.81,20.3V84.15h-15.2Z"></path><path class="cls-1" d="M221.52,35.4a29.51,29.51,0,0,0-30,29.08,29.39,29.39,0,0,0,7.86,19.67h44.14a29.57,29.57,0,0,0,7.66-19.67A29.07,29.07,0,0,0,221.52,35.4Zm0,47.46c-8.94,0-14.86-8.22-14.86-18.38,0-9.94,5.92-18.27,14.86-18.27s14.62,8,14.62,18.27S230.57,82.86,221.52,82.86Z"></path><path class="cls-1" d="M221.52,20.93A14.17,14.17,0,0,1,214,18.55H196.59c5.09,7,13.79,10.75,24.93,10.75s19.83-3.79,24.83-10.75H229.06A14,14,0,0,1,221.52,20.93Z"></path><path class="cls-1" d="M76.79,101.39A3.34,3.34,0,0,0,73.42,98c-2.39,0-3.8,2-3.8,4.33s1.32,4.34,3.87,4.34a3.11,3.11,0,0,0,3.37-2.94h2.55a5.73,5.73,0,0,1-5.92,5.16,6.56,6.56,0,0,1-.07-13.12,5.83,5.83,0,0,1,5.9,5.63Z"></path><path class="cls-1" d="M87.16,95.76a6.56,6.56,0,1,1-6.38,6.56A6.42,6.42,0,0,1,87.16,95.76Zm0,2.23c-2.26,0-3.88,1.75-3.88,4.33s1.62,4.34,3.88,4.34S91,104.91,91,102.32,89.42,98,87.16,98Z"></path><path class="cls-1" d="M95.3,96.22h3.3l3.23,9.52,3.23-9.54h3.31v12.33H106.1V98.75l-3.32,9.79h-1.9l-3.32-9.77v9.77H95.3Z"></path><path class="cls-1" d="M110.4,96.22h3.3l3.23,9.52,3.22-9.54h3.32v12.33h-2.28V98.75l-3.31,9.79H116l-3.31-9.77v9.77H110.4Z"></path><path class="cls-1" d="M127.64,103.53c0,2.23,1.27,3.3,2.92,3.3s3-1.07,3-3.3V96.22h2.24v8c0,2.82-2.31,4.67-5.25,4.67s-5.17-1.85-5.17-4.67v-8h2.25Z"></path><path class="cls-1" d="M137.75,96.22H140l5.3,8.38V96.22h2.28v12.32h-2.28l-5.3-8.46v8.46h-2.28Z"></path><path class="cls-1" d="M149.63,96.22h2.49v12.32h-2.49Z"></path><path class="cls-1" d="M157.16,98.11h-3.62V96.22h9.66v1.89h-3.55v10.43h-2.49Z"></path><path class="cls-1" d="M166.91,96.22l2.68,6.26,2.76-6.26h2.49l-4,8.5v3.82H168.4v-3.77l-4-8.55Z"></path><path class="cls-1" d="M183.9,98.11h-3.62V96.22h9.66v1.89h-3.55v10.43H183.9Z"></path><path class="cls-1" d="M191.35,96.22h6a3.58,3.58,0,0,1,3.76,3.89,3.43,3.43,0,0,1-2.16,3.5,4.42,4.42,0,0,1,1.48,2.66,6.22,6.22,0,0,0,1,2.27l-2.38,0a5.8,5.8,0,0,1-.89-2.09c-.37-1.19-.73-2.4-1.49-2.63h-2.86v4.7h-2.48ZM197,102a1.83,1.83,0,0,0,1.86-1.9,1.86,1.86,0,0,0-2-1.94h-3V102Z"></path><path class="cls-1" d="M204.92,103.53c0,2.23,1.27,3.3,2.92,3.3s3-1.07,3-3.3V96.22h2.24v8c0,2.82-2.31,4.67-5.25,4.67s-5.17-1.85-5.17-4.67v-8h2.25Z"></path><path class="cls-1" d="M219.81,108.88c-3.59,0-5.22-2.32-5.1-4.77h2.6a2.45,2.45,0,0,0,2.62,2.88c1.39,0,2.33-.68,2.33-1.65,0-2.74-7.26-1.41-7.26-6,0-2.47,2.11-3.57,4.62-3.57,2.77,0,4.78,1.34,4.71,4.81l-2.65,0c.1-2-.63-3-2.18-3-1.36,0-2.14.75-2.14,1.68,0,2.91,7.38,1.62,7.38,5.94C224.74,107.71,222.36,108.88,219.81,108.88Z"></path><path class="cls-1" d="M229.23,98.11h-3.62V96.22h9.65v1.89h-3.55v10.43h-2.48Z"></path><path class="cls-1" d="M71.71,44.74c0-15,11.5-22.81,26.12-22.81,11.84,0,25.77,5.68,25.65,22.17l-.11,40.28H109.79v-9h-.93c-2.09,5.22-7.78,11.37-19.5,11.37-13.58,0-18.81-8.24-18.81-16.13,0-22.52,37.73-16.14,37.73-31.12,0-5.1-4.41-8.35-10.45-8.35-7.54,0-11.61,5.34-11.61,14.27Zm13.93,24c0,5.34,4.18,8.59,9.75,8.59,6.74,0,12.89-4.87,12.89-16.6v-7C102.36,61.4,85.64,58,85.64,68.71Z"></path></svg>