<?xml version="1.0" encoding="UTF-8"?>
<svg id="Layer_1" xmlns="http://www.w3.org/2000/svg" viewBox="0 0 2263.74 1045.33">
  <defs>
    <style>
      .cls-1 {
        fill: #da2e2a;
      }

      .cls-2 {
        fill: #f5f2f2;
      }
    </style>
  </defs>
  <path class="cls-2" d="M437.78,434.56h-60.29c-11-4.17-26.54-17.44-41.33-37.16-19.34-25.41-42.47-60.67-70.15-105.04v53.09c0,37.92,3.79,61.81,14.03,89.11h-94.8c10.24-27.3,14.03-51.19,14.03-89.11v-132.34c0-37.92-3.79-61.81-14.03-89.11h87.98c82.29,0,126.66,40.96,126.66,92.15,0,34.51-16.69,61.81-50.06,81.53,11.75,22.37,24.27,43.61,37.54,63.71,13.27,20.1,29.96,43.99,50.44,71.67v1.52ZM313.4,180.87c-12.51-10.62-28.44-15.93-47.4-15.93v120.59c42.85-11,66.36-35.27,66.36-62.19,0-17.82-6.45-31.85-18.96-42.47Z"/>
  <path class="cls-2" d="M604.64,438.36c-98.97,1.9-167.99-75.84-166.85-156.23-1.52-87.22,75.84-163.82,168.37-161.92,91.77-1.14,170.65,64.09,169.13,153.96,1.52,93.67-76.6,165.72-170.65,164.2ZM618.67,386.03c49.68,0,84.18-42.09,84.18-93.29,1.52-62.95-49.68-121.73-108.45-120.21-45.13,0-83.43,36.03-83.43,91.39-.76,63.33,45.13,123.62,107.7,122.11Z"/>
  <path class="cls-2" d="M809.79,340.9h1.52c14.41,17.82,26.54,29.96,36.78,36.78,10.24,6.83,20.86,10.24,32.61,10.24,19.72,0,34.89-13.65,34.89-31.47s-8.72-26.54-49.68-51.95c-42.47-26.17-58.02-52.71-58.02-91.77,0-49.68,38.68-92.53,98.97-92.53,22.37,0,43.61,4.55,63.33,13.65v65.6l-1.14.38c-20.86-19.34-37.54-26.54-58.4-26.54-22.37,0-34.89,12.51-34.89,29.58,0,18.2,11.76,34.13,46.64,54.99,47.4,29.2,62.95,45.13,64.09,86.46,0,58.78-47.4,94.04-106.56,94.04-26.17,0-49.68-4.17-70.15-12.13v-85.32Z"/>
  <path class="cls-2" d="M1037.32,213.1c0-37.92-3.79-61.81-14.03-89.11h188.09l-31.1,68.64c-20.1-13.65-45.5-21.24-76.22-22.37v81.91h97.46l-36.78,61.81c-16.31-8.34-36.4-12.89-60.67-13.65v84.56c48.92,0,85.7-7.21,122.49-24.27l.76.76-29.58,73.19h-174.44c10.24-27.3,14.03-51.19,14.03-89.11v-132.34Z"/>
  <path class="cls-2" d="M1511.33,345.45c0,37.92,3.79,61.81,14.03,89.11h-94.8c10.24-27.3,14.03-51.19,14.03-89.11v-39.82h-115.28v39.82c0,37.92,3.79,61.81,14.03,89.11h-94.8c10.24-27.3,14.03-51.19,14.03-89.11v-132.34c0-37.92-3.79-61.81-14.03-89.11h94.8c-10.24,27.3-14.03,51.19-14.03,89.11v39.06h115.28v-39.06c0-37.92-3.79-61.81-14.03-89.11h94.8c-10.24,27.3-14.03,51.19-14.03,89.11v132.34Z"/>
  <path class="cls-2" d="M1580.35,213.1c0-37.92-3.79-61.81-14.03-89.11h94.8c-10.24,27.3-14.03,51.19-14.03,89.11v132.34c0,37.92,3.79,61.81,14.03,89.11h-94.8c10.24-27.3,14.03-51.19,14.03-89.11v-132.34Z"/>
  <path class="cls-2" d="M1716.11,213.1c0-37.92-3.79-61.81-14.03-89.11h94.8c-10.24,27.3-14.03,51.19-14.03,89.11v171.02c20.1-1.9,42.09-6.07,65.22-12.13,23.13-6.45,41.33-12.89,53.85-20.1l.76.76-33.75,81.91h-166.85c10.24-27.3,14.03-51.19,14.03-89.11v-132.34Z"/>
  <path class="cls-2" d="M1931.12,213.1c0-37.92-3.79-61.81-14.03-89.11h94.8c-10.24,27.3-14.03,51.19-14.03,89.11v171.02c20.1-1.9,42.09-6.07,65.22-12.13,23.13-6.45,41.33-12.89,53.85-20.1l.76.76-33.75,81.91h-166.85c10.24-27.3,14.03-51.19,14.03-89.11v-132.34Z"/>
  <path class="cls-2" d="M358.14,499.41c26.92,0,48.16,3.03,72.81,10.62v65.6l-1.14.38c-23.13-15.55-54.23-25.79-84.18-25.79-54.23,0-95.18,45.5-95.18,106.94s40.2,105.42,92.91,105.42c38.3,0,73.19-14.41,94.8-36.03l1.14.38-3.41,67.12c-27.68,15.55-60.67,23.51-98.97,23.51-93.67,1.14-160.41-67.5-159.27-153.96-1.52-98.59,81.53-165.34,180.5-164.2Z"/>
  <path class="cls-2" d="M629.28,817.57c-98.97,1.9-167.99-75.84-166.85-156.24-1.52-87.22,75.84-163.82,168.37-161.92,91.77-1.14,170.65,64.09,169.13,153.96,1.52,93.67-76.6,165.71-170.65,164.2ZM643.31,765.24c49.68,0,84.18-42.09,84.18-93.29,1.52-62.95-49.68-121.73-108.45-120.21-45.13,0-83.43,36.03-83.43,91.39-.76,63.33,45.13,123.62,107.7,122.11Z"/>
  <path class="cls-2" d="M847.33,592.32c0-37.92-3.79-61.81-14.03-89.12h94.8c-10.24,27.3-14.03,51.19-14.03,89.12v171.02c20.1-1.9,42.09-6.07,65.22-12.13,23.13-6.45,41.33-12.89,53.85-20.1l.76.76-33.75,81.91h-166.85c10.24-27.3,14.03-51.19,14.03-89.11v-132.34Z"/>
  <path class="cls-2" d="M1062.34,592.32c0-37.92-3.79-61.81-14.03-89.12h94.8c-10.24,27.3-14.03,51.19-14.03,89.12v171.02c20.1-1.9,42.09-6.07,65.22-12.13,23.13-6.45,41.33-12.89,53.85-20.1l.76.76-33.75,81.91h-166.85c10.24-27.3,14.03-51.19,14.03-89.11v-132.34Z"/>
  <path class="cls-2" d="M1277.35,592.32c0-37.92-3.79-61.81-14.03-89.12h188.09l-31.1,68.64c-20.1-13.65-45.5-21.24-76.22-22.37v81.91h97.46l-36.78,61.81c-16.31-8.34-36.4-12.89-60.67-13.65v84.56c48.92,0,85.7-7.21,122.49-24.27l.76.76-29.58,73.19h-174.44c10.24-27.3,14.03-51.19,14.03-89.11v-132.34Z"/>
  <path class="cls-2" d="M1736.58,573.74l-1.14.38c-32.99-20.86-60.67-28.44-92.15-28.44-55.37,0-97.08,42.47-97.08,107.32s44.37,113.38,105.42,113.38c15.55,0,28.44-2.65,39.44-7.58v-20.1c0-32.99-7.21-57.26-21.24-81.53h98.21c-6.07,13.27-10.24,35.27-10.24,55.37v34.89c0,21.62,1.9,38.3,5.69,50.06-33.37,12.51-75.08,20.1-113.38,20.1-121.73,0-176.71-68.26-176.71-148.27-1.14-98.97,73.19-171.4,177.47-169.89,29.96,0,58.4,3.03,85.7,9.48v64.84Z"/>
  <path class="cls-2" d="M1812.42,592.32c0-37.92-3.79-61.81-14.03-89.12h188.09l-31.1,68.64c-20.1-13.65-45.5-21.24-76.22-22.37v81.91h97.46l-36.78,61.81c-16.31-8.34-36.4-12.89-60.67-13.65v84.56c48.92,0,85.7-7.21,122.49-24.27l.76.76-29.58,73.19h-174.44c10.24-27.3,14.03-51.19,14.03-89.11v-132.34Z"/>
  <path class="cls-1" d="M230.63,913.1c0,7.17.64,11.64,2.63,16.68h-17.75c1.92-5.11,2.63-9.58,2.63-16.68v-20.52l-16.83,20.8-17.61-21.66v21.37c0,7.1.71,11.57,2.7,16.68h-17.75c1.92-5.11,2.63-9.58,2.63-16.68v-34.43c-1.92-2.56-3.98-4.83-6.25-6.82v-.21h18.46c.43,1.35.92,2.49,1.56,3.55.64,1.07,1.78,2.49,3.27,4.33l13.06,16.19,14.77-18.32c1.92-2.27,3.12-4.19,3.69-5.75h15.19v.21c-1.77,2.2-2.98,4.26-3.55,6.11-.57,1.85-.85,4.33-.85,7.53v27.62Z"/>
  <path class="cls-1" d="M298.58,929.78h-18.03c.14-.5.21-1.14.21-1.92,0-2.49-.78-5.04-2.77-10.15l-.07-.21h-22.79l-.21.43c-1.99,4.76-2.84,7.45-2.84,9.94,0,.64.07,1.28.14,1.92h-17.75v-.21c2.84-3.34,4.97-6.96,8.02-13.42l12.78-27.62c3.2-6.82,5.33-12.42,6.46-16.9h11.22c1.07,4.26,3.05,9.87,6.04,16.9l11.86,27.83c2.56,5.89,4.54,9.3,7.74,13.21v.21ZM280.83,867.58c-2.63-.5-5.96-.71-9.94-.71h-7.1c-3.98,0-7.31.21-9.94.71v-9.58c2.63.5,5.96.71,9.94.71h7.1c3.98,0,7.31-.21,9.94-.71v9.58ZM259.46,907.49h14.48l-6.89-17.47-7.6,17.47Z"/>
  <path class="cls-1" d="M326.55,881c-6.89,0-13.56,1.92-18.74,5.04l-.14-.14,4.19-14.27h47.57l-5.89,13.63c-3.76-2.7-8.59-4.12-14.48-4.26v32.09c0,7.1.71,11.57,2.63,16.68h-17.75c1.99-5.04,2.63-9.51,2.63-16.68v-32.09Z"/>
  <path class="cls-1" d="M412.04,929.78h-18.03c.14-.5.21-1.14.21-1.92,0-2.49-.78-5.04-2.77-10.15l-.07-.21h-22.79l-.21.43c-1.99,4.76-2.84,7.45-2.84,9.94,0,.64.07,1.28.14,1.92h-17.75v-.21c2.84-3.34,4.97-6.96,8.02-13.42l12.78-27.62c3.2-6.82,5.33-12.42,6.46-16.9h11.22c1.07,4.26,3.05,9.87,6.04,16.9l11.86,27.83c2.56,5.89,4.54,9.3,7.74,13.21v.21ZM394.29,867.58c-2.63-.5-5.96-.71-9.94-.71h-7.1c-3.98,0-7.31.21-9.94.71v-9.58c2.63.5,5.96.71,9.94.71h7.1c3.98,0,7.31-.21,9.94-.71v9.58ZM372.92,907.49h14.48l-6.89-17.47-7.6,17.47Z"/>
  <path class="cls-1" d="M420.13,881c-6.89,0-13.56,1.92-18.74,5.04l-.14-.14,4.19-14.27h47.57l-5.89,13.63c-3.76-2.7-8.59-4.12-14.48-4.26v32.09c0,7.1.71,11.57,2.63,16.68h-17.75c1.99-5.04,2.63-9.51,2.63-16.68v-32.09Z"/>
  <path class="cls-1" d="M505.62,929.78h-18.03c.14-.5.21-1.14.21-1.92,0-2.49-.78-5.04-2.77-10.15l-.07-.21h-22.79l-.21.43c-1.99,4.76-2.84,7.45-2.84,9.94,0,.64.07,1.28.14,1.92h-17.75v-.21c2.84-3.34,4.97-6.96,8.02-13.42l12.78-27.62c3.2-6.82,5.33-12.42,6.46-16.9h11.22c1.07,4.26,3.05,9.87,6.04,16.9l11.86,27.83c2.56,5.89,4.54,9.3,7.74,13.21v.21ZM466.5,907.49h14.48l-6.89-17.47-7.6,17.47Z"/>
  <path class="cls-1" d="M506.75,888.32c0-7.1-.71-11.57-2.63-16.68h17.75c-1.92,5.11-2.63,9.58-2.63,16.68v18.39c0,8.59,3.76,12.99,9.8,12.99s11.79-4.62,11.79-11.57v-19.81c0-7.1-.71-11.57-2.63-16.68h17.75c-1.92,5.11-2.63,9.58-2.63,16.68v24.78c0,7.1.71,11.57,2.63,16.68h-15.05c.35-1.28.5-3.2.5-5.75-5.89,4.19-11.5,6.25-16.75,6.25-11.57,0-17.89-8.31-17.89-23.71v-18.25Z"/>
  <path class="cls-1" d="M584,888.32c0-7.1-.71-11.57-2.63-16.68h35.22l-5.82,12.85c-3.76-2.56-8.52-3.98-14.27-4.19v15.34h18.25l-6.89,11.57c-3.05-1.56-6.82-2.41-11.36-2.56v15.83c9.16,0,16.05-1.35,22.93-4.54l.14.14-5.54,13.7h-32.66c1.92-5.11,2.63-9.58,2.63-16.68v-24.78Z"/>
  <path class="cls-1" d="M690.5,913.1c0,7.1.71,11.57,2.63,16.68h-17.75c1.92-5.11,2.63-9.58,2.63-16.68v-7.46h-21.58v7.46c0,7.1.71,11.57,2.63,16.68h-17.75c1.92-5.11,2.63-9.58,2.63-16.68v-24.78c0-7.1-.71-11.57-2.63-16.68h17.75c-1.92,5.11-2.63,9.58-2.63,16.68v7.31h21.58v-7.31c0-7.1-.71-11.57-2.63-16.68h17.75c-1.92,5.11-2.63,9.58-2.63,16.68v24.78Z"/>
  <path class="cls-1" d="M758.45,929.78h-18.03c.14-.5.21-1.14.21-1.92,0-2.49-.78-5.04-2.77-10.15l-.07-.21h-22.79l-.21.43c-1.99,4.76-2.84,7.45-2.84,9.94,0,.64.07,1.28.14,1.92h-17.75v-.21c2.84-3.34,4.97-6.96,8.02-13.42l12.78-27.62c3.2-6.82,5.33-12.42,6.46-16.9h11.22c1.07,4.26,3.05,9.87,6.04,16.9l11.86,27.83c2.56,5.89,4.54,9.3,7.74,13.21v.21ZM719.32,907.49h14.48l-6.89-17.47-7.6,17.47Z"/>
  <path class="cls-1" d="M814.82,910.82c0,8.02.71,13.35,2.13,18.96h-16.76c-.35-1.63-1.77-4.19-4.33-7.74l-20.24-28.04v16.83c0,4.33.14,7.88.5,10.65.36,2.7,1.07,5.47,2.06,8.31h-17.04c.99-2.84,1.63-5.61,1.99-8.31.36-2.77.57-6.32.57-10.65v-30.53c-3.05-3.76-4.97-5.82-8.17-8.38v-.28h19.81c.5,1.49,1.07,2.91,1.78,4.26.78,1.28,2.06,3.2,3.83,5.75l22.01,30.53v-21.58c0-4.33-.21-7.81-.57-10.51-.35-2.77-1.06-5.54-2.06-8.45h17.18c-1.07,2.91-1.78,5.68-2.13,8.45-.36,2.7-.57,6.18-.57,10.51v20.23Z"/>
  <path class="cls-1" d="M873.04,884.84l-.21.07c-6.18-3.91-11.36-5.33-17.25-5.33-10.37,0-18.18,7.95-18.18,20.09s8.31,21.23,19.74,21.23c2.91,0,5.33-.5,7.38-1.42v-3.76c0-6.18-1.35-10.72-3.98-15.26h18.39c-1.14,2.48-1.92,6.6-1.92,10.37v6.53c0,4.05.36,7.17,1.07,9.37-6.25,2.34-14.06,3.76-21.23,3.76-22.79,0-33.09-12.78-33.09-27.76-.21-18.53,13.7-32.09,33.23-31.81,5.61,0,10.93.57,16.05,1.78v12.14Z"/>
  <path class="cls-1" d="M942.26,929.78h-18.03c.14-.5.21-1.14.21-1.92,0-2.49-.78-5.04-2.77-10.15l-.07-.21h-22.79l-.21.43c-1.99,4.76-2.84,7.45-2.84,9.94,0,.64.07,1.28.14,1.92h-17.75v-.21c2.84-3.34,4.97-6.96,8.02-13.42l12.78-27.62c3.2-6.82,5.33-12.42,6.46-16.9h11.22c1.07,4.26,3.05,9.87,6.04,16.9l11.86,27.83c2.56,5.89,4.54,9.3,7.74,13.21v.21ZM903.14,907.49h14.48l-6.89-17.47-7.6,17.47Z"/>
  <path class="cls-1" d="M992.67,913.1c0,7.1.71,11.57,2.63,16.68h-17.75c1.92-5.11,2.63-9.58,2.63-16.68v-7.46h-21.58v7.46c0,7.1.71,11.57,2.63,16.68h-17.75c1.92-5.11,2.63-9.58,2.63-16.68v-24.78c0-7.1-.71-11.57-2.63-16.68h17.75c-1.92,5.11-2.63,9.58-2.63,16.68v7.31h21.58v-7.31c0-7.1-.71-11.57-2.63-16.68h17.75c-1.92,5.11-2.63,9.58-2.63,16.68v24.78Z"/>
  <path class="cls-1" d="M1060.62,929.78h-18.03c.14-.5.21-1.14.21-1.92,0-2.49-.78-5.04-2.77-10.15l-.07-.21h-22.79l-.21.43c-1.99,4.76-2.84,7.45-2.84,9.94,0,.64.07,1.28.14,1.92h-17.75v-.21c2.84-3.34,4.97-6.96,8.02-13.42l12.78-27.62c3.2-6.82,5.33-12.42,6.46-16.9h11.22c1.07,4.26,3.05,9.87,6.04,16.9l11.86,27.83c2.56,5.89,4.54,9.3,7.74,13.21v.21ZM1021.5,907.49h14.48l-6.89-17.47-7.6,17.47Z"/>
  <path class="cls-1" d="M1116.99,910.82c0,8.02.71,13.35,2.13,18.96h-16.76c-.35-1.63-1.77-4.19-4.33-7.74l-20.24-28.04v16.83c0,4.33.14,7.88.5,10.65.36,2.7,1.07,5.47,2.06,8.31h-17.04c.99-2.84,1.63-5.61,1.99-8.31.36-2.77.57-6.32.57-10.65v-30.53c-3.05-3.76-4.97-5.82-8.17-8.38v-.28h19.81c.5,1.49,1.07,2.91,1.78,4.26.78,1.28,2.06,3.2,3.83,5.75l22.01,30.53v-21.58c0-4.33-.21-7.81-.57-10.51-.35-2.77-1.06-5.54-2.06-8.45h17.18c-1.07,2.91-1.78,5.68-2.13,8.45-.36,2.7-.57,6.18-.57,10.51v20.23Z"/>
  <path class="cls-1" d="M1175.21,884.84l-.21.07c-6.18-3.91-11.36-5.33-17.25-5.33-10.37,0-18.18,7.95-18.18,20.09s8.31,21.23,19.74,21.23c2.91,0,5.33-.5,7.38-1.42v-3.76c0-6.18-1.35-10.72-3.98-15.26h18.39c-1.14,2.48-1.92,6.6-1.92,10.37v6.53c0,4.05.36,7.17,1.07,9.37-6.25,2.34-14.06,3.76-21.23,3.76-22.79,0-33.09-12.78-33.09-27.76-.21-18.53,13.7-32.09,33.23-31.81,5.61,0,10.93.57,16.05,1.78v12.14Z"/>
  <path class="cls-1" d="M1244.44,929.78h-18.03c.14-.5.21-1.14.21-1.92,0-2.49-.78-5.04-2.77-10.15l-.07-.21h-22.79l-.21.43c-1.99,4.76-2.84,7.45-2.84,9.94,0,.64.07,1.28.14,1.92h-17.75v-.21c2.84-3.34,4.97-6.96,8.02-13.42l12.78-27.62c3.2-6.82,5.33-12.42,6.46-16.9h11.22c1.07,4.26,3.05,9.87,6.04,16.9l11.86,27.83c2.56,5.89,4.54,9.3,7.74,13.21v.21ZM1205.32,907.49h14.48l-6.89-17.47-7.6,17.47Z"/>
  <path class="cls-1" d="M1316.79,929.78h-18.03c.14-.5.21-1.14.21-1.92,0-2.49-.78-5.04-2.77-10.15l-.07-.21h-22.79l-.21.43c-1.99,4.76-2.84,7.45-2.84,9.94,0,.64.07,1.28.14,1.92h-17.75v-.21c2.84-3.34,4.97-6.96,8.02-13.42l12.78-27.62c3.2-6.82,5.33-12.42,6.46-16.9h11.22c1.07,4.26,3.05,9.87,6.04,16.9l11.86,27.83c2.56,5.89,4.54,9.3,7.74,13.21v.21ZM1277.66,907.49h14.48l-6.89-17.47-7.6,17.47Z"/>
  <path class="cls-1" d="M1320.62,888.32c0-7.1-.71-11.57-2.63-16.68h17.75c-1.92,5.11-2.63,9.58-2.63,16.68v24.78c0,7.1.71,11.57,2.63,16.68h-17.75c1.92-5.11,2.63-9.58,2.63-16.68v-24.78Z"/>
  <path class="cls-1" d="M1372.31,881c-6.89,0-13.56,1.92-18.74,5.04l-.14-.14,4.19-14.27h47.57l-5.89,13.63c-3.76-2.7-8.59-4.12-14.48-4.26v32.09c0,7.1.71,11.57,2.63,16.68h-17.75c1.99-5.04,2.63-9.51,2.63-16.68v-32.09Z"/>
  <path class="cls-1" d="M1409.86,888.32c0-7.1-.71-11.57-2.63-16.68h35.22l-5.82,12.85c-3.76-2.56-8.52-3.98-14.27-4.19v15.34h18.25l-6.89,11.57c-3.05-1.56-6.82-2.41-11.36-2.56v15.83c9.16,0,16.05-1.35,22.93-4.54l.14.14-5.54,13.7h-32.66c1.92-5.11,2.63-9.58,2.63-16.68v-24.78Z"/>
  <path class="cls-1" d="M1478.31,881c-6.89,0-13.56,1.92-18.74,5.04l-.14-.14,4.19-14.27h47.57l-5.89,13.63c-3.76-2.7-8.59-4.12-14.48-4.26v32.09c0,7.1.71,11.57,2.63,16.68h-17.75c1.99-5.04,2.63-9.51,2.63-16.68v-32.09Z"/>
  <path class="cls-1" d="M1563.79,929.78h-18.03c.14-.5.21-1.14.21-1.92,0-2.49-.78-5.04-2.77-10.15l-.07-.21h-22.79l-.21.43c-1.99,4.76-2.84,7.45-2.84,9.94,0,.64.07,1.28.14,1.92h-17.75v-.21c2.84-3.34,4.97-6.96,8.02-13.42l12.78-27.62c3.2-6.82,5.33-12.42,6.46-16.9h11.22c1.07,4.26,3.05,9.87,6.04,16.9l11.86,27.83c2.56,5.89,4.54,9.3,7.74,13.21v.21ZM1524.67,907.49h14.48l-6.89-17.47-7.6,17.47Z"/>
  <path class="cls-1" d="M1567.63,888.32c0-7.1-.71-11.57-2.63-16.68h17.75c-1.92,5.11-2.63,9.58-2.63,16.68v24.78c0,7.1.71,11.57,2.63,16.68h-17.75c1.92-5.11,2.63-9.58,2.63-16.68v-24.78Z"/>
  <path class="cls-1" d="M1648.07,929.78h-18.03c.14-.5.21-1.14.21-1.92,0-2.49-.78-5.04-2.77-10.15l-.07-.21h-22.79l-.21.43c-1.99,4.76-2.84,7.45-2.84,9.94,0,.64.07,1.28.14,1.92h-17.75v-.21c2.84-3.34,4.97-6.96,8.02-13.42l12.78-27.62c3.2-6.82,5.33-12.42,6.46-16.9h11.22c1.07,4.26,3.05,9.87,6.04,16.9l11.86,27.83c2.56,5.89,4.54,9.3,7.74,13.21v.21ZM1608.95,907.49h14.48l-6.89-17.47-7.6,17.47Z"/>
  <path class="cls-1" d="M1677.67,930.49c-18.53.36-31.45-14.2-31.24-29.25-.28-16.33,14.2-30.67,31.52-30.32,17.18-.21,31.95,12,31.67,28.83.28,17.54-14.34,31.03-31.95,30.74ZM1680.3,920.69c9.3,0,15.76-7.88,15.76-17.47.28-11.79-9.3-22.79-20.31-22.51-8.45,0-15.62,6.75-15.62,17.11-.14,11.86,8.45,23.15,20.16,22.86Z"/>
  <path class="cls-1" d="M1782.82,913.1c0,7.1.71,11.57,2.63,16.68h-17.75c1.92-5.11,2.63-9.58,2.63-16.68v-7.46h-21.58v7.46c0,7.1.71,11.57,2.63,16.68h-17.75c1.92-5.11,2.63-9.58,2.63-16.68v-24.78c0-7.1-.71-11.57-2.63-16.68h17.75c-1.92,5.11-2.63,9.58-2.63,16.68v7.31h21.58v-7.31c0-7.1-.71-11.57-2.63-16.68h17.75c-1.92,5.11-2.63,9.58-2.63,16.68v24.78Z"/>
  <path class="cls-1" d="M1795.75,888.32c0-7.1-.71-11.57-2.63-16.68h17.75c-1.92,5.11-2.63,9.58-2.63,16.68v24.78c0,7.1.71,11.57,2.63,16.68h-17.75c1.92-5.11,2.63-9.58,2.63-16.68v-24.78Z"/>
  <path class="cls-1" d="M1865.82,929.78h-11.29c-2.06-.78-4.97-3.27-7.74-6.96-3.62-4.76-7.95-11.36-13.13-19.67v9.94c0,7.1.71,11.57,2.63,16.68h-17.75c1.92-5.11,2.63-9.58,2.63-16.68v-24.78c0-7.1-.71-11.57-2.63-16.68h16.47c15.41,0,23.71,7.67,23.71,17.25,0,6.46-3.12,11.57-9.37,15.26,2.2,4.19,4.54,8.17,7.03,11.93,2.48,3.76,5.61,8.24,9.44,13.42v.28ZM1842.54,882.28c-2.34-1.99-5.33-2.98-8.88-2.98v22.58c8.02-2.06,12.42-6.6,12.42-11.64,0-3.34-1.21-5.96-3.55-7.95Z"/>
  <path class="cls-1" d="M1924.89,929.78h-18.03c.14-.5.21-1.14.21-1.92,0-2.49-.78-5.04-2.77-10.15l-.07-.21h-22.79l-.21.43c-1.99,4.76-2.84,7.45-2.84,9.94,0,.64.07,1.28.14,1.92h-17.75v-.21c2.84-3.34,4.97-6.96,8.02-13.42l12.78-27.62c3.2-6.82,5.33-12.42,6.46-16.9h11.22c1.07,4.26,3.05,9.87,6.04,16.9l11.86,27.83c2.56,5.89,4.54,9.3,7.74,13.21v.21ZM1885.77,907.49h14.48l-6.89-17.47-7.6,17.47Z"/>
  <path class="cls-1" d="M1981.27,910.82c0,8.02.71,13.35,2.13,18.96h-16.76c-.35-1.63-1.77-4.19-4.33-7.74l-20.24-28.04v16.83c0,4.33.14,7.88.5,10.65.36,2.7,1.07,5.47,2.06,8.31h-17.04c.99-2.84,1.63-5.61,1.99-8.31.36-2.77.57-6.32.57-10.65v-30.53c-3.05-3.76-4.97-5.82-8.17-8.38v-.28h19.81c.5,1.49,1.07,2.91,1.78,4.26.78,1.28,2.06,3.2,3.83,5.75l22.01,30.53v-21.58c0-4.33-.21-7.81-.57-10.51-.35-2.77-1.06-5.54-2.06-8.45h17.18c-1.07,2.91-1.78,5.68-2.13,8.45-.36,2.7-.57,6.18-.57,10.51v20.23Z"/>
  <path class="cls-1" d="M2039.49,884.84l-.21.07c-6.18-3.91-11.36-5.33-17.25-5.33-10.37,0-18.18,7.95-18.18,20.09s8.31,21.23,19.74,21.23c2.91,0,5.33-.5,7.38-1.42v-3.76c0-6.18-1.35-10.72-3.98-15.26h18.39c-1.14,2.48-1.92,6.6-1.92,10.37v6.53c0,4.05.36,7.17,1.07,9.37-6.25,2.34-14.06,3.76-21.23,3.76-22.79,0-33.09-12.78-33.09-27.76-.21-18.53,13.7-32.09,33.23-31.81,5.61,0,10.93.57,16.05,1.78v12.14Z"/>
  <path class="cls-1" d="M2108.71,929.78h-18.03c.14-.5.21-1.14.21-1.92,0-2.49-.78-5.04-2.77-10.15l-.07-.21h-22.79l-.21.43c-1.99,4.76-2.84,7.45-2.84,9.94,0,.64.07,1.28.14,1.92h-17.75v-.21c2.84-3.34,4.97-6.96,8.02-13.42l12.78-27.62c3.2-6.82,5.33-12.42,6.46-16.9h11.22c1.07,4.26,3.05,9.87,6.04,16.9l11.86,27.83c2.56,5.89,4.54,9.3,7.74,13.21v.21ZM2069.59,907.49h14.48l-6.89-17.47-7.6,17.47Z"/>
</svg>