<?xml version="1.0" encoding="UTF-8"?>
<svg id="Layer_1" data-name="Layer 1" xmlns="http://www.w3.org/2000/svg" viewBox="0 0 1059.22 1051">
  <defs>
    <style>
      .cls-1 {
        fill: #b5b5b7;
        stroke-width: 0px;
      }
    </style>
  </defs>
  <path class="cls-1" d="M236.66,431.35c1.7,5.94,4.66,9.89,10.18,12.76,20.33,10.58,31.41,27.8,34.54,50.42,1.84,13.28,1.24,26.5.22,39.78-1.16,15.13,1.86,29.68,6.98,43.81,2.58,7.11,5.73,14.01,8.63,21,.48,1.15,1.03,2.26,1.49,3.41,4.32,10.76,2.45,16.74-7.67,22.9-17.15,10.43-35.34,18.65-54.55,24.53-22.17,6.79-44.86,9.94-68.02,8.94-23.66-1.02-41.53-12.32-54.2-32.01-11.05-17.16-17.26-36.26-21.52-56.02-5.96-27.59-6.49-55.47-3.16-83.41,5.81-48.75,16.5-96.37,34.42-142.19,15.29-39.09,36.74-74.35,66.58-104.15,11.98-11.97,25.38-21.94,41.86-27.05,19.95-6.18,38.79-2.87,56.76,6.9,21.6,11.75,38.86,28.56,53.34,48.08,12.06,16.25,23.18,33.21,34.39,50.08,6.19,9.32,5.08,17.06-3.13,24.64-5.56,5.14-11.79,9.54-17.3,14.73-8.37,7.87-14.31,17.41-18.01,28.35-3.3,9.77-7.97,18.76-15.79,25.78-8.83,7.92-19.57,10.77-31.07,11.98-16.16,1.7-32.29,3.75-48.43,5.68-2.18.26-4.35.7-6.55,1.06ZM136.29,627.37c2.92-12.18,2.7-23.58-2.01-34.79-5.1-12.14-8.3-24.74-7.85-38,.71-21.29,10.67-38.24,25.73-52.44,11.84-11.17,24.31-21.65,34.58-34.42,19.34-24.06,28.89-51.04,26.73-82.22-1.84-26.63-3.97-53.28-2.19-80.04,1.52-22.89,6.25-44.95,15.92-65.84.53-1.15.97-2.34,1.45-3.51-.27-.25-.54-.49-.81-.74-6.35,3.56-12.85,6.9-19.02,10.74-12.82,7.98-23.94,17.8-31.43,31.18-9.93,17.75-10.26,36.81-8.63,56.48,1.14,13.67,1.44,27.63.08,41.25-2.88,28.88-15.28,53.94-33.77,76.16-11.16,13.41-19.22,28.57-24.85,45.1-7.32,21.48-7.98,43.65-7.15,65.94.34,9.02,1.1,18.15,2.97,26.96,3.66,17.3,14.07,29.76,30.24,38.2Z"/>
  <path class="cls-1" d="M859.57,428.09c-10.4-2.06-19.67-3.62-28.8-5.78-13.5-3.2-27.21-5.94-40.28-10.47-22.89-7.94-38.57-23.65-46.75-46.84-1.75-4.96-5.57-9.3-8.92-13.55-5.69-7.21-12.21-13.8-17.56-21.24-7.62-10.58-7.65-19.2.6-29.29,7.52-9.2,15.87-17.84,24.58-25.95,29.56-27.56,63.21-48.37,101.86-60.88,17.55-5.68,33.04-2.29,46.35,9.86,8.04,7.35,15.29,15.63,22.39,23.92,25.12,29.33,46.41,61.13,61.5,96.85,9.52,22.53,15.82,45.96,19.63,70.09,3.31,20.97,6.95,41.89,9.98,62.9,3.36,23.28,5.27,46.73,4.04,70.25-1.18,22.56-7.66,43.28-24.59,59.46-12.77,12.19-28.41,18.89-45.24,23.21-35.98,9.23-70.71,4.31-104.61-9.45-4.94-2.01-9.84-4.14-14.66-6.43-11.95-5.66-16.35-15.14-13.81-28.14,2.59-13.26,5.26-26.54,6.95-39.93,2.12-16.83,1.47-33.8-.85-50.58-2.14-15.48,3.88-27.08,15.38-36.57,7.57-6.24,15.44-12.15,22.69-18.74,3.75-3.41,6.44-7.98,10.14-12.71ZM988.51,534.26c-.11-1.63-.2-4.49-.51-7.32-1.97-17.82-9.22-33.57-18.67-48.56-6.62-10.5-13.2-21.07-19.01-32.03-18.9-35.64-29.63-73.57-30.59-114.04-.33-14.09-1.4-28.02-5.95-41.47-5.37-15.86-13.21-30.27-25.33-42.05-11.32-11.01-24.59-14.32-39.8-9.78-2.57.77-3.24,1.87-2.5,4.57,1.77,6.51,6.52,9.6,12.3,11.9,22.74,9.03,32.84,23.86,31.09,48.14-1.1,15.31-4.01,30.5-6.26,45.72-2.67,18.11-3,36.15,1.41,54.04,4.9,19.92,14.98,36.95,29.39,51.44,13.35,13.43,26.32,27.21,35.69,43.81,15.73,27.85,12.94,58.33-7.24,82.29-6.38,7.58-14.03,13.67-22.28,19.1-4.5,2.96-5.6,6.39-4.11,10.48,1.57,4.3,4.99,6.47,9.97,6.11,10.06-.71,19.35-3.59,26.68-10.85,5.38-5.32,10.8-10.68,15.53-16.56,12.56-15.63,20.01-33.33,20.19-54.93Z"/>
  <path class="cls-1" d="M542.85,212.41c-8.55,11.7-12.9,24.39-15.16,37.9-.25,1.47-.65,2.91-.94,4.37-2.44,12.39-9.33,20.25-21.67,24.44-21.34,7.25-43.24,12.11-65.14,17.07-4.96,1.12-9.87,2.59-14.89,3.35-2.8.42-5.99.32-8.64-.59-9.87-3.4-17.66-10.04-24.94-17.25-18.45-18.28-33.09-39.29-44.6-62.56-7.07-14.3-10.18-29.02-8.14-45.08,2.07-16.26,4.93-32.16,12.75-46.76,11.15-20.81,29.26-33,50.93-40.61,18.46-6.49,37.63-10.1,56.85-13.32,29.24-4.89,58.73-7.1,88.36-6.56,41.12.76,81.85,5.23,121.55,16.31,24.02,6.7,44.19,19.72,58.17,40.99,11.91,18.12,16.09,38.26,14.83,59.68-1.9,32.29-15.34,60.64-30.71,88.21-4.4,7.88-9.58,15.44-15.22,22.5-7.15,8.96-17.05,11.55-27.86,8.17-5.95-1.86-11.79-4.72-17.03-8.12-9.42-6.11-19.88-8.08-30.64-9.52-6.52-.88-13.06-1.72-19.49-3.03-12.98-2.64-22.65-10.02-28.66-21.77-4.01-7.84-7.36-16.01-11.04-24.02-3.35-7.28-7.4-14.09-13.43-19.53-1.64-1.47-3.41-2.79-5.23-4.27ZM521.59,171.87c10.19.06,21.96-1.33,33.19-5.08,20.23-6.76,40.16-14.44,60.39-21.19,22.21-7.41,44.18-15.74,67.46-19.49,4.62-.74,6.5-3.69,5.73-8.37-.75-4.56-4.04-7.02-7.85-8.8-7.78-3.63-16.11-4.98-24.6-5.24-15.25-.46-29.35,3.91-43.09,10.15-48.52,22.06-98.4,26.11-149.59,10.6-8.78-2.66-17.24-6.47-26.12-8.66-15.59-3.83-31.4-2.91-46.88.84-14.37,3.48-24.91,12.4-32.27,25.2-1.27,2.21-.91,3.49.95,5,4.86,3.97,10.05,3.3,15.51,1.62,16.61-5.12,33.45-5.44,50.48-2.33,17.11,3.13,33.15,9.4,49.02,16.22,14.68,6.32,29.98,9.56,47.67,9.51Z"/>
  <path class="cls-1" d="M448.5,968.91c-37.47-.56-72.07-11.17-104.27-29.7-52.15-30.01-96.27-69.35-133.58-116.44-3.3-4.16-7.13-7.89-10.66-11.86-1.98-2.22-4.37-4.27-5.71-6.84-6.99-13.4-14.7-26.52-17.5-41.69-2.43-13.14.15-25.16,7.89-36.05,8.31-11.68,19.59-20.04,31.35-27.81,27.38-18.07,57.72-29.22,89.21-37.47,9.83-2.58,18.58.13,25.36,7.76,15.45,17.37,30.72,34.9,46.08,52.36,3.55,4.04,3.17,8.55,2.04,13.35-3.32,14.13-6.63,28.26-9.63,42.45-.92,4.34-.97,8.89-1.13,13.35-.2,5.4,3.73,7.84,8.8,5.57,1.34-.6,2.61-1.45,3.78-2.35,23.45-18.05,49.9-26.01,79.44-24.02,25.6,1.72,49.8,9.07,73.29,18.68,17.78,7.27,25.27,20.69,22.53,39.6-2.92,20.13-6.4,40.21-10.41,60.16-3.3,16.42-9.31,31.93-19.29,45.65-14.45,19.87-34.35,30.35-58.32,33.65-6.38.88-12.85,1.14-19.28,1.68ZM434.43,938.03c-6.84-4.83-13.24-9.08-19.36-13.71-24.64-18.66-43.5-42.46-60.1-68.21-6.06-9.39-12.98-17.87-22.03-24.54-11.42-8.42-24.47-12.97-37.98-16.6-17.01-4.58-34.12-8.88-50.19-16.38-22.38-10.44-37.69-27.1-44.91-50.9-.74-2.45-1.45-4.91-2.34-7.91-4.12,4.83-6.73,9.78-8.06,15.42-2.6,11.02.72,21.63,4.83,31.17,3.94,9.15,10.39,17.67,17.28,25.01,15.74,16.75,35.58,27.47,57.47,33.89,23.8,6.98,42.67,20.59,58.27,39.51,8.69,10.55,18.13,20.48,27,30.89,21.55,25.27,48.98,29.32,80.12,22.37Z"/>
  <path class="cls-1" d="M747.79,782.17c-.82-4.28-.8-7.96-2.22-10.96-16.17-34.05-10.62-65.1,13.32-93.13,9.9-11.59,20.79-22.46,32.03-32.77,12.1-11.09,26.36-11.06,40.23-3.68,24.1,12.83,46.66,28.05,66.73,46.72,9.95,9.25,19.42,18.95,26.18,30.9,12.47,22.04,11.93,43.4-2.97,64.32-40.79,57.28-90.16,105.24-151.55,140.22-24.34,13.87-49.74,25.51-76.42,34.06-15.43,4.95-31.33,8-47.71,5.36-13.35-2.15-24.04-8.95-32.86-19.02-1.28-1.46-3.06-2.46-4.45-3.84-1.99-1.99-4.09-3.95-5.66-6.24-2.08-3.03-3.48-6.53-5.55-9.57-11.61-17.15-17.7-36.26-20.54-56.58-1.87-13.36-2.69-26.67.58-39.99,8.28-33.81,38.47-61.47,72.85-67.32,18.12-3.08,35.35-.26,52.35,5.7,13.71,4.81,27.39,9.67,41.09,14.49,1.15.4,2.34.69,4.56,1.33ZM607.47,918.09c2.85,1.56,5.43,2.58,7.53,4.22,3.32,2.58,4.22,6.48,3.79,10.43-.4,3.72,1.06,5,4.55,5.39,5.55.62,11.05,1.65,16.57,2.5,12.96,1.98,25.64,4.75,36.95,11.92,1.15.73,3.09.66,4.55.39,27.34-5.07,49.54-19.08,68.15-39.33,12.6-13.72,22.83-29.14,32.53-44.95,11.82-19.28,28.03-33.08,49.9-39.68,21.32-6.43,39.57-17.79,54.93-33.81,9.24-9.63,17.53-20.01,23.55-32.03,5.64-11.26,3.6-21.96-2.65-32.22-2.56-4.21-6.61-5.98-11.46-5.44-4.72.52-6.99,3.83-8.32,8-.38,1.18-.78,2.36-1.07,3.57-6.06,25.13-22.48,39.4-47.28,44.35-18.65,3.72-36.07,10.06-51.51,21.38-18,13.19-31.3,30.4-42.36,49.51-11.1,19.18-22.94,37.87-37.57,54.61-9.75,11.16-21.67,18.26-37,17.82-14.1-.4-27.97-2.17-40.88-8.51-2-.98-4.12-1.75-6.25-2.4-6.37-1.92-11.88-.49-16.67,4.27Z"/>
  <path class="cls-1" d="M424.12,578.53c3.65,4.65,8.29,5.52,13.46,5.72,9.15.36,18.41.38,27.41,1.89,14.74,2.46,19.43,10.26,15.87,24.88-4.75,19.51-13.75,37.05-26.35,52.55-7.66,9.42-16.08,18.31-24.83,26.76-11.34,10.95-25.01,12.77-39.4,7.01-13.54-5.41-24.02-14.8-31.76-27.13-4.74-7.55-9.21-15.27-13.83-22.89-.57-.95-1.19-1.93-1.99-2.66-15.93-14.46-24.22-33.11-28.99-53.55-2.17-9.3-3.05-18.91-5.48-28.12-2.12-8.04-3.7-16.06-2.72-24.25,1.1-9.21,2.21-18.56,4.86-27.39,2.02-6.74,5.84-13.18,9.95-18.99,7.9-11.18,19.71-14.5,32.79-13.97,25.04,1.01,48.12,9.18,70.51,19.74,2.58,1.22,5.07,2.65,7.68,3.8,21.5,9.47,25.36,34.93,12.87,52.64-4.57,6.48-10.09,12.29-15.2,18.38-1.51,1.8-3.07,3.55-4.84,5.6ZM336.98,506.32c-1.62.56-3.43.67-4.46,1.63-3.77,3.51-7.97,6.85-10.75,11.08-6.39,9.73-8.17,20.95-8.27,32.4-.03,3.67-.04,7.64,1.25,10.96,5.76,14.79,12.45,29.23,17.93,44.11,7.38,20.04,15.9,39.37,29.33,56.2,6.67,8.36,16.22,11.09,27.96,7.43-3.21-2.85-5.79-5.63-8.84-7.73-6.13-4.24-10.4-9.89-13.62-16.47-4.65-9.49-6.8-19.7-8.29-30.03-2.34-16.24-6.57-31.77-14.9-46.11-3.35-5.77-5.92-12.03-8.39-18.25-3.76-9.49-5.69-19.37-3.56-29.55,1.08-5.15,2.95-10.12,4.61-15.68Z"/>
  <path class="cls-1" d="M683.73,581.33c-6.48-5.97-13.08-11.81-19.41-17.93-8.02-7.76-14.92-16.34-17.99-27.39-3.43-12.35-.1-22.8,9.09-31.48,7.21-6.8,16-10.86,25.3-13.81,16.46-5.23,33.1-9.84,50.45-10.98,15.23-1.01,30.39-.6,44.51,6.19,11.17,5.38,17.26,14.71,17.65,26.94,1.87,59.04-12.44,113.18-49.44,160.27-4.74,6.03-10.24,11.18-17.22,14.56-11.48,5.56-22.75,4.35-33.54-1.69-12.26-6.87-22.35-16.56-32.15-26.45-11.67-11.78-22.28-24.46-29.64-39.48-1.62-3.3-2.79-6.92-3.55-10.53-1.97-9.35,1.48-16.21,10.03-20.6,8.38-4.3,17.53-5.25,26.72-5.82,6.28-.39,12.56-.62,18.85-.92.11-.29.23-.59.34-.88ZM727.41,647.58c-.2,6.49,1.06,9.11,5.46,9.27,3.92.14,7.93-.31,11.81-1.04,3.52-.66,6.38-3.08,6.93-6.58,1.26-8.07,3.05-16.28,2.63-24.33-1.34-25.91,3.06-49.74,21.23-69.59,3.94-4.3,6.26-9.51,7.04-15.35,1.74-13-1.63-25.11-6.61-36.89-.69-1.64-2.08-3.13-3.48-4.29-3.16-2.6-6.81-2.8-10.51-1.22-3.48,1.49-4.29,4.57-4.39,7.97-.05,1.74,0,3.48,0,5.22,0,7.09.07,14.18-.04,21.27-.15,10.38-3.87,19.01-11.19,26.71-13.4,14.12-19.87,30.99-17.11,50.77.43,3.06,1.39,6.16,1.16,9.16-.74,9.66-1.92,19.28-2.92,28.91Z"/>
  <path class="cls-1" d="M548.77,674.18c5.12-3.09,8.3-7.16,10.35-12.06,1.53-3.65,2.73-7.45,3.92-11.24,3.21-10.16,9-18.53,17.57-24.82,8.81-6.47,19.08-6.71,28.23-.75,2.89,1.88,5.79,4.03,8.01,6.63,16.8,19.62,31.35,40.8,42.43,64.18,2.36,4.97,3.94,10.51,4.8,15.96,1.89,11.98-3.24,21.02-13.24,27.44-11.19,7.19-23.72,10.47-36.64,12.85-7.41,1.37-14.66,3.61-21.98,5.43-.84.21-1.71.36-2.58.39-20.37.56-40.74,1.16-61.11,1.6-12.2.27-23.83-2.98-35.44-6.22-6.09-1.7-12.25-3.17-18.28-5.05-3.29-1.03-6.5-2.5-9.55-4.13-13.19-7.02-18.33-17.52-14.43-31.95,2.41-8.91,5.99-17.61,9.96-25.97,6.02-12.67,12.61-25.08,19.4-37.35,2.98-5.38,6.46-10.74,10.74-15.09,9.81-9.97,26.34-9.52,35.11,1.36,6.02,7.48,10.58,16.16,15.51,24.48,2.65,4.46,4.71,9.27,7.22,14.31ZM539.85,719.47c-.03.26-.05.51-.08.77-2.36,0-4.74-.16-7.08.03-12.58,1.03-22.85,5.68-27.9,18.25-3.25,8.09-1.82,10.6,6.77,12.59,6.49,1.5,12.61-.23,18.68-1.94,18.11-5.08,35.79-4.74,53.04,3.35,1.13.53,2.66.66,3.91.43,5.73-1.05,11.43-2.27,17.13-3.48,6.7-1.41,14.27-9.54,15.02-15.98.31-2.65-.34-4.03-3.42-4.41-9.73-1.18-19.4-2.86-29.13-4.08-15.63-1.96-31.29-3.7-46.94-5.54Z"/>
  <path class="cls-1" d="M473.9,407.18c-.5,10.39-.62,20.82-1.61,31.17-.81,8.48-1.71,17.16-4.26,25.23-5.91,18.71-18.31,22.83-33.74,19.49-26.29-5.68-50.78-16.39-73.2-31.3-13.67-9.09-17.32-19.56-13.39-35.48,9.9-40.06,33.98-69.09,70.15-88.08,11.14-5.85,23.25-9.89,35.02-14.49,7.84-3.07,15.77-5.97,23.83-8.41,10.29-3.12,20.58-2.36,30.74,1.11,2.55.87,5.37.9,8,1.58,13.58,3.54,20.57,12.85,23.2,26.22,6.28,31.89,3.65,62.74-10.26,92.38-7.87,16.76-20.23,19.05-32.86,5.51-6.51-6.98-12.15-14.78-18.18-22.2-.83-1.03-1.69-2.03-2.54-3.05-.3.11-.6.22-.9.34ZM465.12,313.45c-1.44,1.29-2.81,2.34-3.98,3.59-9.61,10.27-19.43,20.29-31.52,27.73-11.63,7.16-23.33,14.23-34.85,21.57-11.7,7.46-22.12,16.34-30.67,27.45-4.39,5.7-5.81,11.87-5.71,18.7.08,5.25,2.7,8.59,7.72,10.12,5.5,1.67,9.68-.97,13.51-4.33,5.14-4.5,10.06-9.25,15.18-13.78,10.27-9.06,21.55-16.25,35.07-19.62,15.48-3.86,27.94-12.59,38.04-24.8,11.33-13.71,19.13-29.55,27.23-45.21.07-.13-.15-.41-.33-.87-10.07,6.84-20.09,7.25-29.7-.54Z"/>
  <path class="cls-1" d="M630.13,307.92c-10.99.5-21.69,2.38-31.45,7.69-6.29,3.42-6.2,7.88.16,11.23,4.37,2.3,9.11,3.92,13.72,5.75,4.84,1.93,8.16,4.83,9.89,10.19,4.67,14.44,14.66,24.52,28.45,30.29,10.62,4.44,21.72,7.75,32.67,11.37,9.96,3.29,19.57,7.14,28.04,13.54,4.74,3.58,5.09,3.27,9.98-.09,2.53-1.74,5.28-3.33,8.15-4.34,4-1.4,6.89-.04,9.19,3.56.2.31.45.62.56.97,3.08,9.8,6.69,19.47,9.05,29.44,2.02,8.57-1.39,16.16-7.51,22.34-8.64,8.71-19.63,13.41-30.94,17.32-21.62,7.48-43.87,8.27-66.24,4.83-14.34-2.2-23.13-12.96-23.26-28.07-.07-8.41,1.05-16.84,1.88-25.23.53-5.34-.28-6.7-5.59-5.87-3.2.5-6.29,2.1-9.26,3.54-8.25,4-16.13,8.93-24.67,12.09-12.7,4.69-20.59.65-25.09-12.1-4.89-13.86-6.68-28.41-5.67-42.95.94-13.45,3.01-26.91,5.7-40.13,3.97-19.51,16.63-29.36,36.58-30.2,11.15-.47,22.05,1.1,32.9,3.35.98.2,1.85.97,2.77,1.47h0Z"/>
  <path class="cls-1" d="M543.3,461.99c39.62,0,66.75,20.49,73.28,51.35,7.87,37.2-12.7,75.94-58.13,80.12-14.3,1.32-28.06-.38-40.91-6.93-18.94-9.65-29.28-25.51-32.25-46.33-2.08-14.6-.57-28.85,5.86-42.2,11.87-24.68,32.45-35.45,52.15-36.02Z"/>
  <path class="cls-1" d="M630.13,307.92c5.95,2.04,12.07,3.7,17.83,6.19,28.89,12.5,51.64,32.77,71.19,56.99.22.27.28.66.77,1.9-9.17-2.59-17.83-4.68-26.26-7.47-20.64-6.83-38.77-17.52-51.19-35.98-3.92-5.83-6.74-12.41-10.12-18.62-.59-1.08-1.47-2.01-2.21-3,0,0,0,0,0,0Z"/>
  <path class="cls-1" d="M249.83,139.75c19.9,9.26,39.67,17.35,54.05,34,2.07,2.4,3.96,5.18,5.13,8.1,2.11,5.28-1.37,10.42-6.96,9.7-13.55-1.76-27.13-3.95-38.9-11.65-11.45-7.49-14.57-18.89-14.13-31.76.09-2.57.49-5.13.82-8.39Z"/>
  <path class="cls-1" d="M814.57,157.01c-.66,5.68-1.03,10.59-1.84,15.42-1.18,7.07-2.4,14.16-4.11,21.12-1.67,6.79-6.1,11.71-12.65,14.16-7.14,2.67-14.49,4.79-22.75,7.47-1.33-8.91-2.73-16.8-3.64-24.74-.81-7.11,2.36-12.81,8.36-16.28,7.27-4.2,14.93-7.75,22.53-11.36,4.32-2.05,8.86-3.66,14.1-5.79Z"/>
  <path class="cls-1" d="M176.01,695.95c-4.07,7.96-7.82,15.63-13.93,21.82-4.53,4.58-10.3,6.5-16.49,6.77-7.65.33-15.32.08-22.99.08,0-.35,0-.71,0-1.06-.09-.22-.33-.49-.26-.64,4.09-9.09,8.8-17.79,15.97-24.89,8.21-8.14,17.95-9.39,28.55-5.89,3.03,1,5.92,2.45,9.15,3.81Z"/>
  <path class="cls-1" d="M1001.51,691.45c-7.72,1.03-15.46,2.03-23.19,3.1-16.58,2.3-25.11-8.69-27.16-22.78-.64-4.42,1.32-7.19,5.45-8.63,8.78-3.07,17.09-2.56,24.31,4.05,1.46,1.34,2.89,2.74,4.15,4.26,5.53,6.65,10.98,13.35,16.45,20.01Z"/>
  <path class="cls-1" d="M314.23,467.29c-12.63.11-21.98-7.75-23.41-18.01-.8-5.74,1.57-9.79,7.18-10.78,7.44-1.31,14.97-2.14,22.49-2.9,2.84-.29,4.99,1.4,6.04,4.11,1.64,4.24,3.32,8.47,4.71,12.79,1.67,5.2-1.75,11.49-7.23,13-3.8,1.05-7.78,1.43-9.77,1.78Z"/>
  <path class="cls-1" d="M394.08,759.97c2.16-12.08,3.5-23.73,11.42-33.11,4.12-4.89,9.32-7.77,15.97-7.28,7.78.56,11.63,6.33,8.67,13.51-4.68,11.36-12.63,19.52-24.46,23.49-3.61,1.21-7.31,2.14-11.6,3.39Z"/>
  <path class="cls-1" d="M701.14,709.95c5.71-.13,10.1,1.94,12.7,6.42,4.03,6.95,7.9,14.12,7.98,22.48.05,4.77-2.08,6.45-6.84,5.94-4.44-.47-8.89-.94-13.32-1.47-7.09-.84-10.42-4.74-10.12-11.75.18-4.09.32-8.18.47-12.27.25-7.02,2.68-9.41,9.12-9.36Z"/>
  <path class="cls-1" d="M542.93,244.55c4.79,8.33,9.63,16.25,13.95,24.44,2.71,5.15,2.97,10.87.28,16.15-1.01,1.98-3.2,4-5.28,4.66-10.15,3.22-20.03-5.32-18.33-15.83.67-4.11,2.27-8.09,3.57-12.08,1.79-5.53,3.69-11.02,5.82-17.34Z"/>
  <path class="cls-1" d="M569.16,933.86c3.92,6.58,7.28,12.61,11.02,18.41,6.76,10.5,2.67,18.33-7.68,25.64-2.62,1.85-5.21.5-7.3-1.67-7.41-7.68-9.58-17.86-5.08-27.47,2.48-5.29,6.05-10.06,9.03-14.91Z"/>
  <path class="cls-1" d="M814.22,439.08c-5.04,14.36-19.9,21.53-33.73,16.57-5.51-1.98-6.95-10.65-2.53-16.18,3.65-4.57,8.47-7.07,14.37-5.82,7.34,1.55,14.58,3.59,21.89,5.43Z"/>
</svg>