<?xml version="1.0" encoding="iso-8859-1"?>
<!-- Uploaded to: SVG Repo, www.svgrepo.com, Generator: SVG Repo Mixer Tools -->
<svg height="800px" width="800px" version="1.1" id="Layer_1" xmlns="http://www.w3.org/2000/svg" xmlns:xlink="http://www.w3.org/1999/xlink" 
	 viewBox="0 0 512 512" xml:space="preserve">
<g transform="translate(1 1)">
	<g>
		<path style="fill:#FFDD09;" d="M476.867,464.067c-5.12,0-8.533-3.413-8.533-8.533v-25.6c0-5.12,3.413-8.533,8.533-8.533
			c5.12,0,8.533,3.413,8.533,8.533v25.6C485.4,460.653,481.987,464.067,476.867,464.067z"/>
		<path style="fill:#FFDD09;" d="M493.933,464.067H459.8c-5.12,0-8.533-3.413-8.533-8.533S454.68,447,459.8,447h34.133
			c5.12,0,8.533,3.413,8.533,8.533S499.053,464.067,493.933,464.067z"/>
		<path style="fill:#FFDD09;" d="M476.867,438.467c-3.413,0-5.973-1.707-7.68-4.267l-59.733-110.933
			c-2.56-4.267-0.853-9.387,3.413-11.947c4.267-2.56,9.387-0.853,11.947,3.413l59.733,110.933c2.56,4.267,0.853,9.387-3.413,11.947
			C479.427,438.467,478.573,438.467,476.867,438.467z"/>
		<polygon style="fill:#FFDD09;" points="229.4,455.533 425.667,455.533 425.667,319 229.4,319 		"/>
	</g>
	<polygon style="fill:#FD9808;" points="400.067,455.533 425.667,455.533 425.667,319 400.067,319 	"/>
	<polygon style="fill:#FFDD09;" points="425.667,319 229.4,319 118.467,165.4 297.667,165.4 	"/>
	<polygon style="fill:#FD9808;" points="297.667,165.4 425.667,319 400.067,319 272.067,165.4 	"/>
	<polygon style="fill:#FFDD09;" points="118.467,165.4 7.533,353.133 7.533,455.533 229.4,455.533 229.4,319 	"/>
	<polygon style="fill:#FFFFFF;" points="132.12,185.027 118.467,165.4 7.533,353.133 7.533,455.533 33.133,455.533 33.133,353.133 	
		"/>
	<g>
		<path style="fill:#1CD759;" d="M69.827,455.533l46.933-161.28c0,0,0,0,0.853,0l46.933,161.28H69.827z"/>
		<path style="fill:#1CD759;" d="M69.827,455.533L50.2,382.147c-2.56-13.653,1.707-34.133,15.36-46.08l52.053-42.667L69.827,455.533
			z"/>
		<path style="fill:#1CD759;" d="M164.547,455.533l20.48-73.387c4.267-17.067-1.707-34.987-15.36-46.08L116.76,293.4
			L164.547,455.533z"/>
		<polygon style="fill:#1CD759;" points="348.867,284.867 255,284.867 195.267,199.533 280.6,199.533 		"/>
	</g>
	<g>
		<path style="fill:#FFDD09;" d="M417.133,173.933c-5.12,0-8.533-3.413-8.533-8.533c0-33.28,26.453-59.733,59.733-59.733
			c5.12,0,8.533,3.413,8.533,8.533c0,5.12-3.413,8.533-8.533,8.533c-23.893,0-42.667,18.773-42.667,42.667
			C425.667,170.52,422.253,173.933,417.133,173.933z"/>
		<path style="fill:#FFDD09;" d="M417.133,173.933c-5.12,0-8.533-3.413-8.533-8.533c0-18.773-15.36-34.133-34.133-34.133
			c-5.12,0-8.533-3.413-8.533-8.533s3.413-8.533,8.533-8.533c28.16,0,51.2,23.04,51.2,51.2
			C425.667,170.52,422.253,173.933,417.133,173.933z"/>
		<path style="fill:#FFDD09;" d="M41.667,54.467c0,18.773-15.36,34.133-34.133,34.133c18.773,0,34.133,15.36,34.133,34.133
			c0-18.773,15.36-34.133,34.133-34.133C57.027,88.6,41.667,73.24,41.667,54.467"/>
	</g>
	<path d="M425.667,464.067H229.4c-5.12,0-8.533-3.413-8.533-8.533V319c0-5.12,3.413-8.533,8.533-8.533h196.267
		c5.12,0,8.533,3.413,8.533,8.533v136.533C434.2,460.653,430.787,464.067,425.667,464.067z M237.933,447h179.2V327.533h-179.2V447z"
		/>
	<path d="M425.667,327.533H229.4c-2.56,0-5.12-1.707-6.827-3.413L111.64,170.52c-1.707-2.56-2.56-5.973-0.853-8.533
		s4.267-4.267,7.68-4.267h179.2c2.56,0,5.12,0.853,6.827,3.413l128,153.6c1.707,2.56,2.56,5.973,0.853,9.387
		C431.64,325.827,429.08,327.533,425.667,327.533z M233.667,310.467h174.08L293.4,173.933H135.533L233.667,310.467z"/>
	<path d="M348.867,293.4H255c-2.56,0-5.12-1.707-6.827-3.413l-59.733-85.333c-1.707-2.56-1.707-5.973-0.853-8.533
		c1.707-2.56,4.267-4.267,7.68-4.267H280.6c2.56,0,5.12,0.853,6.827,3.413l68.267,85.333c1.707,2.56,2.56,5.973,0.853,9.387
		C354.84,291.693,352.28,293.4,348.867,293.4z M259.267,276.333h71.68l-54.613-68.267H211.48L259.267,276.333z"/>
	<path d="M229.4,464.067H7.533c-5.12,0-8.533-3.413-8.533-8.533v-102.4c0-1.707,0-3.413,0.853-4.267l110.933-187.733
		c1.707-2.56,4.267-4.267,6.827-4.267c2.56,0,5.973,0.853,7.68,3.413l110.933,153.6c0.853,1.707,1.707,3.413,1.707,5.12v136.533
		C237.933,460.653,234.52,464.067,229.4,464.067z M16.067,447h204.8V321.56L119.32,180.76L16.067,355.693V447z"/>
	<path d="M485.4,464.067c-5.12,0-8.533-3.413-8.533-8.533v-25.6c0-5.12,3.413-8.533,8.533-8.533s8.533,3.413,8.533,8.533v25.6
		C493.933,460.653,490.52,464.067,485.4,464.067z"/>
	<path d="M502.467,464.067h-34.133c-5.12,0-8.533-3.413-8.533-8.533s3.413-8.533,8.533-8.533h34.133c5.12,0,8.533,3.413,8.533,8.533
		S507.587,464.067,502.467,464.067z"/>
	<path d="M485.4,438.467c-3.413,0-5.973-1.707-7.68-4.267l-59.733-110.933c-2.56-4.267-0.853-9.387,3.413-11.947
		c4.267-2.56,9.387-0.853,11.947,3.413l59.733,110.933c2.56,4.267,0.853,9.387-3.413,11.947
		C487.96,438.467,487.107,438.467,485.4,438.467z"/>
	<path d="M164.547,464.067L164.547,464.067h-94.72c-2.56,0-5.12-0.853-6.827-3.413c-1.707-2.56-1.707-5.12-1.707-7.68l46.933-161.28
		v-0.853c1.707-3.413,4.267-5.12,7.68-5.12l0,0c3.413,0,6.827,1.707,7.68,5.12c0,0.853,0,0.853,0.853,1.707l46.933,161.28
		c0.853,2.56,0,5.12-1.707,7.68C169.667,463.213,167.107,464.067,164.547,464.067z M81.773,447h71.68l-35.84-122.88L81.773,447z"/>
	<path d="M69.827,464.067c-3.413,0-6.827-2.56-8.533-5.973l-19.627-73.387c-3.413-16.213,1.707-39.253,17.067-54.613l52.053-42.667
		c3.413-3.413,9.387-2.56,11.947,0.853c2.56,3.413,2.56,9.387-0.853,11.947l-52.053,42.667c-8.533,9.387-12.8,27.307-11.093,37.547
		l19.627,72.533c0.853,4.267-1.707,9.387-5.973,10.24C71.533,464.067,70.68,464.067,69.827,464.067z"/>
	<path d="M164.547,464.067c-0.853,0-1.707,0-2.56,0c-4.267-0.853-6.827-5.973-5.973-10.24l20.48-73.387
		c3.413-13.653-0.853-28.16-11.947-37.547l-52.907-42.667c-3.413-2.56-4.267-8.533-1.707-11.947
		c2.56-3.413,8.533-4.267,11.947-1.707l52.907,42.667c16.213,13.653,23.04,34.987,17.92,55.467l-20.48,73.387
		C172.227,461.507,168.813,464.067,164.547,464.067z"/>
	<path style="fill:#020202;" d="M41.667,131.267c-5.12,0-8.533-3.413-8.533-8.533c0-14.507-11.093-25.6-25.6-25.6
		C2.413,97.133-1,93.72-1,88.6c0-5.12,3.413-8.533,8.533-8.533c14.507,0,25.6-11.093,25.6-25.6c0-5.12,3.413-8.533,8.533-8.533
		s8.533,3.413,8.533,8.533c0,14.507,11.093,25.6,25.6,25.6c5.12,0,8.533,3.413,8.533,8.533c0,5.12-3.413,8.533-8.533,8.533
		c-14.507,0-25.6,11.093-25.6,25.6C50.2,127.853,46.787,131.267,41.667,131.267z M33.133,88.6c3.413,2.56,5.973,5.12,8.533,8.533
		c2.56-3.413,5.12-5.973,8.533-8.533c-3.413-2.56-5.973-5.12-8.533-8.533C39.107,83.48,36.547,86.04,33.133,88.6z"/>
	<path d="M408.6,173.933c-5.12,0-8.533-3.413-8.533-8.533c0-33.28,26.453-59.733,59.733-59.733c5.12,0,8.533,3.413,8.533,8.533
		c0,5.12-3.413,8.533-8.533,8.533c-23.893,0-42.667,18.773-42.667,42.667C417.133,170.52,413.72,173.933,408.6,173.933z"/>
	<path d="M408.6,173.933c-5.12,0-8.533-3.413-8.533-8.533c0-18.773-15.36-34.133-34.133-34.133c-5.12,0-8.533-3.413-8.533-8.533
		s3.413-8.533,8.533-8.533c28.16,0,51.2,23.04,51.2,51.2C417.133,170.52,413.72,173.933,408.6,173.933z"/>
	<path d="M425.667,387.267H383c-5.12,0-8.533-3.413-8.533-8.533c0-5.12,3.413-8.533,8.533-8.533h42.667
		c5.12,0,8.533,3.413,8.533,8.533C434.2,383.853,430.787,387.267,425.667,387.267z"/>
	<path d="M425.667,421.4H357.4c-5.12,0-8.533-3.413-8.533-8.533c0-5.12,3.413-8.533,8.533-8.533h68.267
		c5.12,0,8.533,3.413,8.533,8.533C434.2,417.987,430.787,421.4,425.667,421.4z"/>
</g>
</svg>