<svg width="19" height="19" viewBox="0 0 19 19" fill="none" xmlns="http://www.w3.org/2000/svg">
<path d="M13.7844 6.20748C14.0496 6.44353 14.0735 6.84971 13.8377 7.11527L8.69486 12.9011C8.57715 13.0333 8.41016 13.1166 8.23312 13.1166C8.22684 13.1166 8.22056 13.1166 8.21429 13.1166C8.04415 13.1166 7.8803 13.0491 7.75977 12.9283L5.18834 10.3569C4.93722 10.1057 4.93722 9.69894 5.18834 9.44782C5.43945 9.19671 5.84626 9.19671 6.09738 9.44782L8.18666 11.5371L12.8766 6.26085C13.1123 5.99561 13.5185 5.97112 13.7844 6.20748ZM18.5 9.90234C18.5 14.865 14.4627 18.9023 9.5 18.9023C4.53732 18.9023 0.5 14.865 0.5 9.90234C0.5 4.93966 4.53732 0.902344 9.5 0.902344C14.4627 0.902344 18.5 4.93966 18.5 9.90234ZM17.2143 9.90234C17.2143 5.64875 13.7536 2.18806 9.5 2.18806C5.24641 2.18806 1.78571 5.64875 1.78571 9.90234C1.78571 14.1559 5.24641 17.6166 9.5 17.6166C13.7536 17.6166 17.2143 14.1559 17.2143 9.90234Z" fill="#34A853"/>
</svg>
